SplineFontDB: 3.2
FontName: ClippySans
FullName: Clippy Sans
FamilyName: Clippy Sans
Weight: Normal
Copyright: 
UComments: "2020-9-12: Created with FontForge (http://fontforge.org)"
Version: 0.9
ItalicAngle: 0
UnderlinePosition: 0
UnderlineWidth: 47.9532
Ascent: 793
Descent: 231
InvalidEm: 0
LayerCount: 2
Layer: 0 0 "Back" 1
Layer: 1 0 "Fore" 0
XUID: [1021 865 -1637023045 19302]
StyleMap: 0x0000
FSType: 0
OS2Version: 0
OS2_WeightWidthSlopeOnly: 0
OS2_UseTypoMetrics: 1
CreationTime: 1599923499
ModificationTime: 1600097573
PfmFamily: 33
TTFWeight: 400
TTFWidth: 5
LineGap: 87
VLineGap: 87
OS2TypoAscent: 0
OS2TypoAOffset: 1
OS2TypoDescent: 0
OS2TypoDOffset: 1
OS2TypoLinegap: 87
OS2WinAscent: 0
OS2WinAOffset: 1
OS2WinDescent: 0
OS2WinDOffset: 1
HheadAscent: 0
HheadAOffset: 1
HheadDescent: 0
HheadDOffset: 1
OS2Vendor: 'PfEd'
MarkAttachClasses: 1
DEI: 91125

StartChar: exclam
Encoding: 33 33 1
Width: 224
VWidth: 968
Flags: HW
LayerCount: 2
Back
Fore
SplineSet
75 105 m 1
 149 105 l 25
 149 30 l 1
 75 30 l 25
 75 105 l 1
75 775 m 25
 149 775 l 1
 149 179 l 25
 75 179 l 1
 75 775 l 25
EndSplineSet
Validated: 1
EndChar

StartChar: quotedbl
Encoding: 34 34 2
Width: 447
VWidth: 968
Flags: HW
LayerCount: 2
Back
Fore
SplineSet
299 775 m 1
 373 775 l 1
 373 477 l 1
 299 477 l 1
 299 775 l 1
75 775 m 1
 149 775 l 1
 149 477 l 1
 75 477 l 1
 75 775 l 1
EndSplineSet
Validated: 1
EndChar

StartChar: numbersign
Encoding: 35 35 3
Width: 596
VWidth: 968
Flags: HW
LayerCount: 2
Back
Fore
SplineSet
224 477 m 1
 224 328 l 1
 373 328 l 1
 373 477 l 1
 224 477 l 1
224 775 m 1
 299 775 l 1
 299 551 l 1
 448 551 l 1
 448 775 l 1
 522 775 l 1
 522 551 l 1
 596 551 l 1
 596 477 l 1
 448 477 l 1
 448 328 l 1
 522 328 l 1
 522 253 l 1
 373 253 l 1
 373 30 l 1
 299 30 l 1
 299 253 l 1
 149 253 l 1
 149 30 l 1
 75 30 l 1
 75 253 l 1
 0 253 l 1
 0 328 l 1
 149 328 l 1
 149 477 l 1
 75 477 l 1
 75 551 l 1
 224 551 l 1
 224 775 l 1
EndSplineSet
Validated: 1
EndChar

StartChar: dollar
Encoding: 36 36 4
Width: 522
VWidth: 968
Flags: HW
LayerCount: 2
Back
Fore
SplineSet
74 179 m 1
 149 179 l 1
 149 104 l 1
 74 104 l 1
 74 179 l 1
224 775 m 1
 298 775 l 1
 298 701 l 1
 373 701 l 1
 373 626 l 1
 298 626 l 1
 298 402 l 1
 373 402 l 1
 373 328 l 1
 298 328 l 1
 297 104 l 1
 373 104 l 1
 373 30 l 1
 298 30 l 1
 298 -45 l 1
 224 -45 l 1
 224 30 l 1
 149 30 l 1
 149 104 l 1
 224 104 l 1
 224 328 l 1
 149 328 l 1
 149 402 l 1
 224 402 l 1
 224 626 l 1
 149 626 l 1
 149 701 l 1
 224 701 l 1
 224 775 l 1
373 328 m 1
 447 328 l 1
 447 104 l 1
 373 104 l 1
 373 328 l 1
74 626 m 1
 149 626 l 1
 149 402 l 1
 74 402 l 1
 74 626 l 1
373 626 m 1
 447 626 l 1
 447 477 l 1
 373 477 l 1
 373 626 l 1
EndSplineSet
Validated: 5
EndChar

StartChar: percent
Encoding: 37 37 5
Width: 894
VWidth: 968
Flags: HW
LayerCount: 2
Back
Fore
SplineSet
75 700 m 1
 149 700 l 1
 149 551 l 1
 75 551 l 1
 75 700 l 1
149 551 m 1
 299 551 l 1
 299 477 l 1
 149 477 l 1
 149 551 l 1
299 700 m 1
 373 700 l 1
 373 551 l 1
 299 551 l 1
 299 700 l 1
149 775 m 1
 299 775 l 1
 299 700 l 1
 149 700 l 1
 149 775 l 1
521 254 m 1
 596 254 l 1
 596 105 l 1
 521 105 l 1
 521 254 l 1
596 105 m 1
 745 105 l 1
 745 30 l 1
 596 30 l 1
 596 105 l 1
745 254 m 1
 820 254 l 1
 820 105 l 1
 745 105 l 1
 745 254 l 1
596 328 m 1
 745 328 l 1
 745 254 l 1
 596 254 l 1
 596 328 l 1
149 179 m 1
 224 179 l 1
 224 105 l 1
 149 105 l 1
 149 179 l 1
224 253 m 1
 299 253 l 1
 299 179 l 1
 224 179 l 1
 224 253 l 1
299 328 m 1
 373 328 l 1
 373 253 l 1
 299 253 l 1
 299 328 l 1
373 403 m 1
 447 403 l 1
 447 328 l 1
 373 328 l 1
 373 403 l 1
447 477 m 1
 521 477 l 1
 521 403 l 1
 447 403 l 1
 447 477 l 1
521 551 m 1
 596 551 l 1
 596 477 l 1
 521 477 l 1
 521 551 l 1
596 626 m 1
 670 626 l 1
 670 551 l 1
 596 551 l 1
 596 626 l 1
670 700 m 1
 745 700 l 1
 745 626 l 1
 670 626 l 1
 670 700 l 1
EndSplineSet
Validated: 5
EndChar

StartChar: ampersand
Encoding: 38 38 6
Width: 670
VWidth: 968
Flags: HW
LayerCount: 2
Back
Fore
SplineSet
224 775 m 1
 373 775 l 1
 373 701 l 1
 224 701 l 1
 224 775 l 1
149 701 m 1
 224 701 l 1
 224 477 l 1
 149 477 l 1
 149 701 l 1
373 701 m 1
 447 701 l 1
 447 477 l 1
 373 477 l 1
 373 701 l 1
224 477 m 1
 373 477 l 1
 373 328 l 1
 298 328 l 1
 298 403 l 1
 224 403 l 1
 224 477 l 1
149 403 m 1
 224 403 l 1
 224 328 l 1
 149 328 l 1
 149 403 l 1
74 328 m 1
 149 328 l 1
 149 104 l 1
 74 104 l 1
 74 328 l 1
149 104 m 1
 447 105 l 1
 447 30 l 1
 149 30 l 1
 149 104 l 1
373 328 m 1
 447 328 l 1
 447 179 l 1
 373 179 l 1
 373 328 l 1
447 179 m 1
 522 179 l 1
 522 104 l 1
 447 105 l 1
 447 179 l 1
522 254 m 1
 596 254 l 1
 596 179 l 1
 522 179 l 1
 522 254 l 1
522 104 m 1
 596 104 l 1
 596 30 l 1
 522 30 l 1
 522 104 l 1
EndSplineSet
Validated: 5
EndChar

StartChar: quotesingle
Encoding: 39 39 7
Width: 224
VWidth: 968
Flags: HW
LayerCount: 2
Back
Fore
SplineSet
75 775 m 1
 149 775 l 1
 149 477 l 1
 75 477 l 1
 75 775 l 1
EndSplineSet
Validated: 1
EndChar

StartChar: parenleft
Encoding: 40 40 8
Width: 298
VWidth: 968
Flags: HW
LayerCount: 2
Back
Fore
SplineSet
224 -119 m 1
 298 -119 l 1
 298 -194 l 1
 224 -194 l 1
 224 -119 l 1
149 30 m 1
 224 30 l 1
 224 -119 l 1
 149 -119 l 1
 149 30 l 1
75 551 m 1
 149 551 l 1
 149 30 l 1
 75 30 l 1
 75 551 l 1
149 700 m 1
 224 700 l 1
 224 551 l 1
 149 551 l 1
 149 700 l 1
224 775 m 1
 298 775 l 1
 298 700 l 1
 224 700 l 1
 224 775 l 1
EndSplineSet
Validated: 5
EndChar

StartChar: parenright
Encoding: 41 41 9
Width: 298
VWidth: 968
Flags: HW
LayerCount: 2
Back
Fore
SplineSet
0 -119 m 1
 75 -119 l 1
 75 -194 l 1
 0 -194 l 1
 0 -119 l 1
75 30 m 1
 149 30 l 1
 149 -119 l 1
 75 -119 l 1
 75 30 l 1
149 551 m 1
 224 551 l 1
 224 30 l 1
 149 30 l 1
 149 551 l 1
75 700 m 1
 149 700 l 1
 149 551 l 1
 75 551 l 1
 75 700 l 1
0 775 m 1
 75 775 l 1
 75 700 l 1
 0 700 l 1
 0 775 l 1
EndSplineSet
Validated: 5
EndChar

StartChar: asterisk
Encoding: 42 42 10
Width: 373
VWidth: 968
Flags: HW
LayerCount: 2
Back
Fore
SplineSet
149 775 m 1
 224 775 l 1
 224 626 l 1
 299 626 l 1
 299 551 l 1
 373 551 l 1
 373 477 l 1
 224 477 l 1
 224 551 l 1
 149 551 l 1
 149 477 l 1
 0 477 l 1
 0 551 l 1
 75 551 l 1
 75 626 l 1
 149 626 l 1
 149 775 l 1
0 700 m 1
 75 700 l 1
 75 626 l 1
 0 626 l 1
 0 700 l 1
299 700 m 1
 373 700 l 1
 373 626 l 1
 299 626 l 1
 299 700 l 1
EndSplineSet
Validated: 5
EndChar

StartChar: plus
Encoding: 43 43 11
Width: 522
VWidth: 968
Flags: HW
LayerCount: 2
Back
Fore
SplineSet
224 551 m 1
 299 551 l 1
 299 403 l 1
 448 403 l 1
 448 328 l 1
 299 328 l 1
 299 179 l 1
 224 179 l 1
 224 328 l 1
 75 328 l 1
 75 403 l 1
 224 403 l 1
 224 551 l 1
EndSplineSet
Validated: 1
EndChar

StartChar: comma
Encoding: 44 44 12
Width: 224
VWidth: 968
Flags: HW
LayerCount: 2
Back
Fore
SplineSet
0 30 m 25
 75 30 l 1
 75 -45 l 25
 0 -45 l 1
 0 30 l 25
75 105 m 1
 149 105 l 1
 149 30 l 1
 75 30 l 1
 75 105 l 1
EndSplineSet
Validated: 5
EndChar

StartChar: hyphen
Encoding: 45 45 13
Width: 298
VWidth: 968
Flags: HW
LayerCount: 2
Back
Fore
SplineSet
0 403 m 1
 298 403 l 1
 298 328 l 1
 0 328 l 1
 0 403 l 1
EndSplineSet
Validated: 1
EndChar

StartChar: period
Encoding: 46 46 14
Width: 224
VWidth: 968
Flags: HW
LayerCount: 2
Back
Fore
SplineSet
75 106 m 1
 150 106 l 1
 150 30 l 1
 75 30 l 1
 75 106 l 1
EndSplineSet
Validated: 1
EndChar

StartChar: slash
Encoding: 47 47 15
Width: 447
VWidth: 968
Flags: HW
LayerCount: 2
Back
Fore
SplineSet
75 105 m 1
 149 105 l 1
 149 -119 l 1
 75 -119 l 1
 75 105 l 1
149 328 m 1
 224 328 l 1
 224 105 l 1
 149 105 l 1
 149 328 l 1
224 551 m 1
 299 551 l 1
 299 328 l 1
 224 328 l 1
 224 551 l 1
299 775 m 1
 373 775 l 1
 373 551 l 1
 299 551 l 1
 299 775 l 1
EndSplineSet
Validated: 5
EndChar

StartChar: zero
Encoding: 48 48 16
Width: 522
VWidth: 968
Flags: HW
LayerCount: 2
Back
Fore
SplineSet
75 700 m 1
 149 700 l 1
 149 105 l 1
 75 105 l 1
 75 700 l 1
149 105 m 1
 373 105 l 1
 373 30 l 1
 149 30 l 1
 149 105 l 1
373 700 m 1
 448 700 l 1
 448 105 l 1
 373 105 l 1
 373 700 l 1
149 775 m 1
 373 775 l 1
 373 700 l 1
 149 700 l 1
 149 775 l 1
EndSplineSet
Validated: 5
EndChar

StartChar: one
Encoding: 49 49 17
Width: 522
VWidth: 968
Flags: HW
LayerCount: 2
Back
Fore
SplineSet
224 775 m 1
 299 775 l 1
 299 30 l 1
 224 30 l 1
 224 626 l 1
 75 626 l 1
 75 700 l 1
 224 700 l 1
 224 775 l 1
EndSplineSet
Validated: 1
EndChar

StartChar: two
Encoding: 50 50 18
Width: 522
VWidth: 968
Flags: HW
LayerCount: 2
Back
Fore
SplineSet
75 254 m 1
 149 254 l 1
 149 105 l 1
 448 105 l 1
 448 30 l 1
 75 30 l 1
 75 254 l 1
149 328 m 1
 224 328 l 1
 224 254 l 1
 149 254 l 1
 149 328 l 1
224 403 m 1
 299 403 l 1
 299 328 l 1
 224 328 l 1
 224 403 l 1
299 477 m 1
 373 477 l 1
 373 403 l 1
 299 403 l 1
 299 477 l 1
373 700 m 1
 448 700 l 1
 448 477 l 1
 373 477 l 1
 373 700 l 1
149 775 m 1
 373 775 l 1
 373 700 l 1
 149 700 l 1
 149 775 l 1
75 700 m 1
 149 700 l 1
 149 551 l 1
 75 551 l 1
 75 700 l 1
EndSplineSet
Validated: 5
EndChar

StartChar: three
Encoding: 51 51 19
Width: 522
VWidth: 968
Flags: HW
LayerCount: 2
Back
Fore
SplineSet
75 179 m 1
 149 179 l 1
 149 105 l 1
 75 105 l 1
 75 179 l 1
149 105 m 1
 373 105 l 1
 373 30 l 1
 149 30 l 1
 149 105 l 1
373 403 m 1
 448 403 l 1
 448 105 l 1
 373 105 l 1
 373 403 l 1
224 477 m 1
 373 477 l 1
 373 403 l 1
 224 403 l 1
 224 477 l 1
373 700 m 1
 448 700 l 1
 448 477 l 1
 373 477 l 1
 373 700 l 1
149 775 m 1
 373 775 l 1
 373 700 l 1
 149 700 l 1
 149 775 l 1
75 700 m 1
 149 700 l 1
 149 626 l 1
 75 626 l 1
 75 700 l 1
EndSplineSet
Validated: 5
EndChar

StartChar: four
Encoding: 52 52 20
Width: 522
VWidth: 968
Flags: HW
LayerCount: 2
Back
Fore
SplineSet
373 775 m 1
 448 775 l 1
 448 30 l 1
 373 30 l 1
 373 254 l 1
 75 254 l 1
 75 403 l 1
 149 403 l 1
 149 328 l 1
 373 328 l 1
 373 626 l 1
 299 626 l 1
 299 700 l 1
 373 700 l 1
 373 775 l 1
149 477 m 1
 224 477 l 1
 224 403 l 1
 149 403 l 1
 149 477 l 1
224 626 m 1
 299 626 l 1
 299 477 l 1
 224 477 l 1
 224 626 l 1
EndSplineSet
Validated: 5
EndChar

StartChar: five
Encoding: 53 53 21
Width: 522
VWidth: 968
Flags: HW
LayerCount: 2
Back
Fore
SplineSet
75 775 m 1
 448 775 l 1
 448 700 l 1
 149 700 l 1
 149 477 l 1
 373 477 l 1
 373 403 l 1
 149 403 l 1
 149 328 l 1
 75 328 l 1
 75 775 l 1
373 403 m 1
 448 403 l 1
 448 105 l 1
 373 105 l 1
 373 403 l 1
149 105 m 1
 373 105 l 1
 373 30 l 1
 149 30 l 1
 149 105 l 1
75 179 m 1
 149 179 l 1
 149 105 l 1
 75 105 l 1
 75 179 l 1
EndSplineSet
Validated: 5
EndChar

StartChar: six
Encoding: 54 54 22
Width: 522
VWidth: 968
Flags: HW
LayerCount: 2
Back
Fore
SplineSet
75 700 m 1
 149 700 l 1
 149 403 l 1
 224 403 l 1
 224 328 l 1
 149 328 l 1
 149 105 l 1
 75 105 l 1
 75 700 l 1
149 105 m 1
 373 105 l 1
 373 30 l 1
 149 30 l 1
 149 105 l 1
373 403 m 1
 448 403 l 1
 448 105 l 1
 373 105 l 1
 373 403 l 1
224 477 m 1
 373 477 l 1
 373 403 l 1
 224 403 l 1
 224 477 l 1
149 775 m 1
 373 775 l 1
 373 700 l 1
 149 700 l 1
 149 775 l 1
373 700 m 1
 448 700 l 1
 448 626 l 1
 373 626 l 1
 373 700 l 1
EndSplineSet
Validated: 5
EndChar

StartChar: seven
Encoding: 55 55 23
Width: 522
VWidth: 968
Flags: HW
LayerCount: 2
Back
Fore
SplineSet
75 775 m 1
 448 775 l 1
 448 551 l 1
 373 551 l 1
 373 700 l 1
 75 700 l 1
 75 775 l 1
299 551 m 1
 373 551 l 1
 373 403 l 1
 299 403 l 1
 299 551 l 1
224 403 m 1
 299 403 l 1
 299 254 l 1
 224 254 l 1
 224 403 l 1
149 254 m 1
 224 254 l 1
 224 30 l 1
 149 30 l 1
 149 254 l 1
EndSplineSet
Validated: 5
EndChar

StartChar: eight
Encoding: 56 56 24
Width: 522
VWidth: 968
Flags: HW
LayerCount: 2
Back
Fore
SplineSet
75 403 m 1
 149 403 l 1
 149 105 l 1
 75 105 l 1
 75 403 l 1
149 105 m 1
 373 105 l 1
 373 30 l 1
 149 30 l 1
 149 105 l 1
373 403 m 1
 448 403 l 1
 448 105 l 1
 373 105 l 1
 373 403 l 1
75 700 m 1
 149 700 l 1
 149 477 l 1
 75 477 l 1
 75 700 l 1
149 477 m 1
 373 477 l 1
 373 403 l 1
 149 403 l 1
 149 477 l 1
373 700 m 1
 448 700 l 1
 448 477 l 1
 373 477 l 1
 373 700 l 1
149 775 m 1
 373 775 l 1
 373 700 l 1
 149 700 l 1
 149 775 l 1
EndSplineSet
Validated: 5
EndChar

StartChar: nine
Encoding: 57 57 25
Width: 522
VWidth: 968
Flags: HW
LayerCount: 2
Back
Fore
SplineSet
448 104 m 1
 373 104 l 1
 373 403 l 1
 299 403 l 1
 299 477 l 1
 373 477 l 1
 373 699 l 1
 448 699 l 1
 448 104 l 1
373 699 m 1
 149 699 l 1
 149 774 l 1
 373 774 l 1
 373 699 l 1
149 403 m 1
 75 403 l 1
 75 699 l 1
 149 699 l 1
 149 403 l 1
299 328 m 1
 149 328 l 1
 149 403 l 1
 299 403 l 1
 299 328 l 1
373 29 m 1
 149 29 l 1
 149 104 l 1
 373 104 l 1
 373 29 l 1
149 104 m 1
 75 104 l 1
 75 178 l 1
 149 178 l 1
 149 104 l 1
EndSplineSet
Validated: 5
EndChar

StartChar: colon
Encoding: 58 58 26
Width: 224
VWidth: 968
Flags: HW
LayerCount: 2
Back
Fore
SplineSet
75 105 m 1
 149 105 l 1
 149 30 l 1
 75 30 l 1
 75 105 l 1
75 551 m 1
 149 551 l 1
 149 477 l 1
 75 477 l 1
 75 551 l 1
EndSplineSet
Validated: 1
EndChar

StartChar: semicolon
Encoding: 59 59 27
Width: 224
VWidth: 968
Flags: HW
LayerCount: 2
Back
Fore
SplineSet
0 30 m 1
 75 30 l 1
 75 -45 l 1
 0 -45 l 1
 0 30 l 1
75 105 m 1
 149 105 l 1
 149 30 l 1
 75 30 l 1
 75 105 l 1
75 551 m 1
 149 551 l 1
 149 477 l 1
 75 477 l 1
 75 551 l 1
EndSplineSet
Validated: 5
EndChar

StartChar: less
Encoding: 60 60 28
Width: 522
VWidth: 968
Flags: HW
LayerCount: 2
Back
Fore
SplineSet
299 626 m 1
 448 626 l 1
 448 551 l 1
 373 551 l 1
 373 477 l 1
 299 477 l 1
 299 403 l 1
 224 403 l 1
 224 328 l 1
 299 328 l 1
 299 254 l 1
 373 254 l 1
 372 178 l 1
 448 178 l 1
 448 105 l 1
 299 105 l 1
 299 179 l 1
 224 179 l 1
 224 254 l 1
 149 254 l 1
 149 328 l 1
 75 328 l 1
 75 403 l 1
 149 403 l 1
 149 477 l 1
 224 477 l 1
 224 551 l 1
 299 551 l 1
 299 626 l 1
EndSplineSet
Validated: 1
EndChar

StartChar: equal
Encoding: 61 61 29
Width: 522
VWidth: 968
Flags: HW
LayerCount: 2
Back
Fore
SplineSet
75 328 m 1
 448 328 l 1
 448 253 l 1
 75 253 l 1
 75 328 l 1
75 477 m 1
 448 477 l 1
 448 403 l 1
 75 403 l 1
 75 477 l 1
EndSplineSet
Validated: 1
EndChar

StartChar: greater
Encoding: 62 62 30
Width: 522
VWidth: 968
Flags: HW
LayerCount: 2
Back
Fore
SplineSet
224 626 m 1
 224 551 l 1
 299 551 l 1
 299 477 l 1
 373 477 l 1
 373 403 l 1
 448 403 l 1
 448 328 l 1
 373 328 l 1
 373 254 l 1
 299 254 l 1
 299 179 l 1
 224 179 l 1
 224 105 l 1
 75 105 l 1
 75 178 l 1
 150 178 l 1
 149 254 l 1
 224 254 l 1
 224 328 l 1
 299 328 l 1
 299 403 l 1
 224 403 l 1
 224 477 l 1
 149 477 l 1
 149 551 l 1
 75 551 l 1
 75 626 l 1
 224 626 l 1
EndSplineSet
Validated: 1
EndChar

StartChar: question
Encoding: 63 63 31
Width: 522
VWidth: 968
Flags: HW
LayerCount: 2
Back
Fore
SplineSet
224 403 m 1
 299 403 l 1
 299 179 l 1
 224 179 l 1
 224 403 l 1
373 700 m 1
 448 700 l 1
 448 477 l 1
 373 477 l 1
 373 700 l 1
149 775 m 1
 373 775 l 1
 373 700 l 1
 149 700 l 1
 149 775 l 1
75 700 m 1
 149 700 l 1
 149 551 l 1
 75 551 l 1
 75 700 l 1
299 477 m 1
 373 477 l 1
 373 403 l 1
 299 403 l 1
 299 477 l 1
224 105 m 1
 299 105 l 1
 299 30 l 1
 224 30 l 1
 224 105 l 1
EndSplineSet
Validated: 5
EndChar

StartChar: at
Encoding: 64 64 32
Width: 1043
VWidth: 968
Flags: HW
LayerCount: 2
Back
Fore
SplineSet
745 104 m 1
 894 104 l 1
 894 30 l 1
 745 30 l 1
 745 104 l 1
373 30 m 1
 745 30 l 1
 745 -45 l 1
 373 -45 l 1
 373 30 l 1
224 104 m 1
 373 104 l 1
 373 30 l 1
 224 30 l 1
 224 104 l 1
149 253 m 1
 224 253 l 1
 224 104 l 1
 149 104 l 1
 149 253 l 1
74 552 m 1
 149 552 l 1
 149 253 l 1
 74 253 l 1
 74 552 l 1
149 701 m 1
 224 701 l 1
 224 552 l 1
 149 552 l 1
 149 701 l 1
224 775 m 1
 373 775 l 1
 373 701 l 1
 224 701 l 1
 224 775 l 1
373 850 m 1
 671 850 l 1
 671 775 l 1
 373 775 l 1
 373 850 l 1
671 775 m 1
 820 775 l 1
 820 701 l 1
 671 701 l 1
 671 775 l 1
820 701 m 1
 895 701 l 1
 895 552 l 1
 820 552 l 1
 820 701 l 1
895 552 m 1
 969 552 l 1
 969 253 l 1
 895 253 l 1
 895 552 l 1
671 253 m 1
 895 253 l 1
 895 179 l 1
 671 179 l 1
 671 253 l 1
447 552 m 1
 745 552 l 1
 745 328 l 1
 671 328 l 1
 671 477 l 1
 447 477 l 1
 447 552 l 1
373 477 m 1
 447 477 l 1
 447 253 l 1
 373 253 l 1
 373 477 l 1
447 253 m 1
 596 253 l 1
 596 179 l 1
 447 179 l 1
 447 253 l 1
596 328 m 1
 671 328 l 1
 671 253 l 1
 596 253 l 1
 596 328 l 1
EndSplineSet
Validated: 5
EndChar

StartChar: A
Encoding: 65 65 33
Width: 670
VWidth: 968
Flags: HW
LayerCount: 2
Back
Fore
SplineSet
596 179 m 1
 596 30 l 1
 670 30 l 1
 670 179 l 1
 596 179 l 1
75 179 m 1
 0 179 l 1
 0 30 l 1
 75 30 l 1
 75 179 l 1
448 477 m 1
 448 328 l 1
 224 328 l 25
 224 477 l 1
 149 477 l 1
 149 328 l 1
 75 328 l 1
 75 179 l 1
 149 179 l 1
 149 253 l 1
 522 253 l 1
 522 179 l 1
 596 179 l 1
 596 328 l 1
 521 328 l 1
 521 477 l 1
 448 477 l 1
373 626 m 1
 373 477 l 1
 448 477 l 1
 448 626 l 1
 373 626 l 1
224 626 m 1
 224 477 l 1
 299 477 l 1
 299 626 l 1
 224 626 l 1
299 775 m 1
 299 626 l 1
 373 626 l 1
 373 775 l 1
 299 775 l 1
EndSplineSet
Validated: 5
EndChar

StartChar: B
Encoding: 66 66 34
Width: 670
VWidth: 968
Flags: HW
LayerCount: 2
Back
Fore
SplineSet
75 775 m 1
 521 775 l 1
 521 700 l 1
 149 700 l 25
 149 477 l 1
 521 477 l 25
 521 403 l 1
 149 403 l 1
 149 105 l 1
 521 105 l 1
 521 30 l 1
 75 30 l 1
 75 775 l 1
521 403 m 1
 596 403 l 1
 596 105 l 1
 521 105 l 1
 521 403 l 1
521 700 m 1
 596 700 l 1
 596 477 l 1
 521 477 l 1
 521 700 l 1
EndSplineSet
Validated: 5
EndChar

StartChar: C
Encoding: 67 67 35
Width: 670
VWidth: 968
Flags: HW
LayerCount: 2
Back
Fore
SplineSet
596 254 m 1
 670 254 l 1
 670 179 l 1
 596 179 l 1
 596 254 l 1
522 179 m 1
 596 179 l 1
 596 105 l 1
 522 105 l 1
 522 179 l 1
224 105 m 1
 522 105 l 1
 522 30 l 1
 224 30 l 1
 224 105 l 1
149 179 m 1
 224 179 l 1
 224 105 l 1
 149 105 l 1
 149 179 l 1
75 626 m 1
 149 626 l 1
 149 179 l 1
 75 179 l 1
 75 626 l 1
149 700 m 1
 224 700 l 1
 224 626 l 1
 149 626 l 1
 149 700 l 1
224 775 m 1
 522 775 l 1
 522 700 l 1
 224 700 l 1
 224 775 l 1
522 700 m 1
 596 700 l 1
 596 626 l 1
 522 626 l 1
 522 700 l 1
596 626 m 1
 670 626 l 1
 670 551 l 1
 596 551 l 1
 596 626 l 1
EndSplineSet
Validated: 5
EndChar

StartChar: D
Encoding: 68 68 36
Width: 745
VWidth: 968
Flags: HW
LayerCount: 2
Back
Fore
SplineSet
75 775 m 1
 522 775 l 1
 522 700 l 1
 149 700 l 1
 149 105 l 1
 522 105 l 1
 522 30 l 1
 75 30 l 1
 75 775 l 1
522 179 m 1
 596 179 l 1
 596 105 l 1
 522 105 l 1
 522 179 l 1
596 626 m 1
 670 626 l 1
 670 179 l 1
 596 179 l 1
 596 626 l 1
522 700 m 1
 596 700 l 1
 596 626 l 1
 522 626 l 1
 522 700 l 1
EndSplineSet
Validated: 5
EndChar

StartChar: E
Encoding: 69 69 37
Width: 670
VWidth: 968
Flags: HW
LayerCount: 2
Back
Fore
SplineSet
75 775 m 1
 596 775 l 1
 596 700 l 1
 149 700 l 1
 149 477 l 1
 522 477 l 1
 522 403 l 1
 149 403 l 1
 149 105 l 1
 596 105 l 1
 596 30 l 1
 75 30 l 1
 75 775 l 1
EndSplineSet
Validated: 1
EndChar

StartChar: F
Encoding: 70 70 38
Width: 596
VWidth: 968
Flags: HW
LayerCount: 2
Back
Fore
SplineSet
75 775 m 1
 597 775 l 1
 597 700 l 1
 149 700 l 1
 149 477 l 1
 522 477 l 1
 522 403 l 1
 149 403 l 1
 149 30 l 1
 75 30 l 1
 75 775 l 1
EndSplineSet
Validated: 1
EndChar

StartChar: G
Encoding: 71 71 39
Width: 745
VWidth: 968
Flags: HW
LayerCount: 2
Back
Fore
SplineSet
448 403 m 1
 670 403 l 1
 670 30 l 1
 596 30 l 1
 596 105 l 1
 522 105 l 1
 522 179 l 1
 596 179 l 1
 596 328 l 1
 448 328 l 1
 448 403 l 1
224 105 m 1
 522 105 l 1
 522 30 l 1
 224 30 l 1
 224 105 l 1
149 179 m 1
 224 179 l 1
 224 105 l 1
 149 105 l 1
 149 179 l 1
75 626 m 1
 149 626 l 1
 149 179 l 1
 75 179 l 1
 75 626 l 1
149 700 m 1
 224 700 l 1
 224 626 l 1
 149 626 l 1
 149 700 l 1
224 775 m 1
 521 775 l 1
 521 700 l 1
 224 700 l 1
 224 775 l 1
521 700 m 1
 596 700 l 1
 596 626 l 1
 521 626 l 1
 521 700 l 1
596 626 m 1
 670 626 l 1
 670 551 l 1
 596 551 l 1
 596 626 l 1
EndSplineSet
Validated: 5
EndChar

StartChar: H
Encoding: 72 72 40
Width: 745
VWidth: 968
Flags: HW
LayerCount: 2
Back
Fore
SplineSet
75 775 m 1
 149 775 l 1
 149 477 l 1
 596 477 l 1
 596 775 l 1
 670 775 l 1
 670 30 l 1
 596 30 l 1
 596 403 l 1
 149 403 l 1
 149 30 l 1
 75 30 l 1
 75 775 l 1
EndSplineSet
Validated: 1
EndChar

StartChar: I
Encoding: 73 73 41
Width: 225
VWidth: 968
Flags: HW
LayerCount: 2
Back
Fore
SplineSet
76 775 m 1
 149 775 l 1
 149 30 l 1
 75 30 l 1
 76 775 l 1
EndSplineSet
Validated: 1
EndChar

StartChar: J
Encoding: 74 74 42
Width: 522
VWidth: 968
Flags: HW
LayerCount: 2
Back
Fore
SplineSet
373 775 m 1
 448 775 l 1
 448 105 l 1
 373 105 l 1
 373 775 l 1
149 105 m 1
 373 105 l 1
 373 30 l 1
 149 30 l 1
 149 105 l 1
75 254 m 1
 149 254 l 1
 149 105 l 1
 75 105 l 1
 75 254 l 1
EndSplineSet
Validated: 5
EndChar

StartChar: K
Encoding: 75 75 43
Width: 596
VWidth: 968
Flags: HW
LayerCount: 2
Back
Fore
SplineSet
75 775 m 1
 149 775 l 1
 149 477 l 1
 224 477 l 1
 224 403 l 1
 149 403 l 1
 149 30 l 1
 75 30 l 1
 75 775 l 1
224 403 m 1
 299 403 l 1
 299 328 l 1
 224 328 l 1
 224 403 l 1
299 253 m 1
 373 253 l 1
 373 328 l 1
 299 328 l 1
 299 253 l 1
373 179 m 1
 448 179 l 1
 448 253 l 1
 373 253 l 1
 373 179 l 1
448 105 m 1
 521 105 l 1
 521 179 l 1
 448 179 l 1
 448 105 l 1
521 30 m 1
 596 30 l 1
 596 105 l 1
 521 105 l 1
 521 30 l 1
224 551 m 1
 299 551 l 1
 299 477 l 1
 224 477 l 1
 224 551 l 1
299 626 m 1
 373 626 l 1
 373 551 l 1
 299 551 l 1
 299 626 l 1
373 700 m 1
 448 700 l 1
 448 626 l 1
 373 626 l 1
 373 700 l 1
448 775 m 1
 522 775 l 1
 522 700 l 1
 448 700 l 1
 448 775 l 1
EndSplineSet
Validated: 5
EndChar

StartChar: L
Encoding: 76 76 44
Width: 522
VWidth: 968
Flags: HW
LayerCount: 2
Back
Fore
SplineSet
75 775 m 1
 149 775 l 1
 149 105 l 1
 522 105 l 1
 522 30 l 1
 75 30 l 1
 75 775 l 1
EndSplineSet
Validated: 1
EndChar

StartChar: M
Encoding: 77 77 45
Width: 820
VWidth: 968
Flags: HW
LayerCount: 2
Back
Fore
SplineSet
670 775 m 1
 745 775 l 1
 745 30 l 1
 670 30 l 1
 670 477 l 1
 596 477 l 1
 596 626 l 1
 670 626 l 1
 670 775 l 1
521 477 m 1
 596 477 l 1
 596 328 l 1
 521 328 l 1
 521 477 l 1
447 328 m 1
 521 328 l 1
 521 179 l 1
 447 179 l 1
 447 328 l 1
373 179 m 1
 447 179 l 1
 447 30 l 1
 373 30 l 1
 373 179 l 1
299 328 m 1
 373 328 l 1
 373 179 l 1
 299 179 l 1
 299 328 l 1
224 477 m 1
 299 477 l 1
 299 328 l 1
 224 328 l 1
 224 477 l 1
75 775 m 1
 149 775 l 1
 149 626 l 1
 224 626 l 1
 224 477 l 1
 149 477 l 1
 149 30 l 1
 75 30 l 1
 75 775 l 1
EndSplineSet
Validated: 5
EndChar

StartChar: N
Encoding: 78 78 46
Width: 745
VWidth: 968
Flags: HW
LayerCount: 2
Back
Fore
SplineSet
596 775 m 1
 670 775 l 1
 670 30 l 1
 596 30 l 1
 596 105 l 1
 521 105 l 1
 521 179 l 1
 596 179 l 1
 596 775 l 1
448 328 m 1
 521 328 l 1
 521 179 l 1
 448 179 l 1
 448 328 l 1
373 403 m 1
 448 403 l 1
 448 328 l 1
 373 328 l 1
 373 403 l 1
299 477 m 1
 373 477 l 1
 373 403 l 1
 299 403 l 1
 299 477 l 1
224 626 m 1
 299 626 l 1
 299 477 l 1
 224 477 l 1
 224 626 l 1
75 775 m 1
 149 775 l 1
 149 700 l 1
 224 700 l 1
 224 626 l 1
 149 626 l 1
 149 30 l 1
 75 30 l 1
 75 775 l 1
EndSplineSet
Validated: 5
EndChar

StartChar: O
Encoding: 79 79 47
Width: 745
VWidth: 968
Flags: HW
LayerCount: 2
Back
Fore
SplineSet
231 626 m 1
 156 626 l 1
 156 700 l 1
 231 700 l 1
 231 626 l 1
528 700 m 1
 231 700 l 1
 231 775 l 1
 528 775 l 1
 528 700 l 1
602 626 m 1
 528 626 l 1
 528 700 l 1
 602 700 l 1
 602 626 l 1
81 626 m 1
 156 626 l 1
 156 179 l 1
 81 179 l 1
 81 626 l 1
602 626 m 1
 677 626 l 1
 677 179 l 1
 602 179 l 1
 602 626 l 1
528 179 m 1
 602 179 l 1
 602 105 l 1
 528 105 l 1
 528 179 l 1
231 105 m 1
 528 105 l 1
 528 30 l 1
 231 30 l 1
 231 105 l 1
156 179 m 1
 231 179 l 1
 231 105 l 1
 156 105 l 1
 156 179 l 1
EndSplineSet
Validated: 5
EndChar

StartChar: P
Encoding: 80 80 48
Width: 670
VWidth: 968
Flags: HW
LayerCount: 2
Back
Fore
SplineSet
75 775 m 1
 521 775 l 1
 521 700 l 1
 149 700 l 1
 149 403 l 1
 521 403 l 1
 521 328 l 1
 149 328 l 1
 149 30 l 1
 75 30 l 1
 75 775 l 1
521 477 m 1
 596 477 l 1
 596 403 l 1
 521 403 l 1
 521 477 l 1
596 626 m 1
 670 626 l 1
 670 477 l 1
 596 477 l 1
 596 626 l 1
521 700 m 1
 596 700 l 1
 596 626 l 1
 521 626 l 1
 521 700 l 1
EndSplineSet
Validated: 5
EndChar

StartChar: Q
Encoding: 81 81 49
Width: 745
VWidth: 968
Flags: HW
LayerCount: 2
Back
Fore
SplineSet
224 775 m 1
 521 775 l 1
 521 700 l 1
 224 700 l 1
 224 775 l 1
149 700 m 1
 224 700 l 1
 224 626 l 1
 149 626 l 1
 149 700 l 1
75 626 m 1
 149 626 l 1
 149 179 l 1
 75 179 l 1
 75 626 l 1
149 179 m 1
 224 179 l 1
 224 105 l 1
 149 105 l 1
 149 179 l 1
224 105 m 1
 521 105 l 1
 521 30 l 1
 224 30 l 1
 224 105 l 1
596 626 m 1
 670 626 l 1
 670 179 l 1
 596 179 l 1
 596 626 l 1
521 700 m 1
 596 700 l 1
 596 626 l 1
 521 626 l 1
 521 700 l 1
596 105 m 1
 670 105 l 1
 670 30 l 1
 596 30 l 1
 596 105 l 1
521 179 m 1
 596 179 l 1
 596 105 l 1
 521 105 l 1
 521 179 l 1
448 254 m 1
 521 254 l 1
 521 179 l 1
 448 179 l 1
 448 254 l 1
EndSplineSet
Validated: 5
EndChar

StartChar: R
Encoding: 82 82 50
Width: 745
VWidth: 968
Flags: HW
LayerCount: 2
Back
Fore
SplineSet
75 775 m 1
 521 775 l 1
 521 700 l 1
 149 700 l 1
 149 403 l 1
 521 403 l 1
 521 477 l 1
 596 477 l 1
 596 329 l 1
 149 329 l 1
 149 30 l 1
 75 30 l 1
 75 775 l 1
596 329 m 1
 670 329 l 1
 670 105 l 1
 596 105 l 1
 596 329 l 1
670 105 m 1
 745 105 l 1
 745 30 l 1
 670 30 l 1
 670 105 l 1
596 626 m 1
 670 626 l 1
 670 477 l 1
 596 477 l 1
 596 626 l 1
521 700 m 1
 596 700 l 1
 596 626 l 1
 521 626 l 1
 521 700 l 1
EndSplineSet
Validated: 5
EndChar

StartChar: S
Encoding: 83 83 51
Width: 670
VWidth: 968
Flags: HW
LayerCount: 2
Back
Fore
SplineSet
521 700 m 1
 596 700 l 1
 596 551 l 1
 521 551 l 1
 521 700 l 1
149 775 m 1
 521 775 l 1
 521 700 l 1
 149 700 l 1
 149 775 l 1
75 700 m 1
 149 700 l 1
 149 477 l 1
 75 477 l 1
 75 700 l 1
149 477 m 1
 373 477 l 1
 373 403 l 1
 149 403 l 1
 149 477 l 1
373 403 m 1
 522 403 l 1
 522 328 l 1
 373 328 l 1
 373 403 l 1
522 328 m 1
 596 328 l 1
 596 105 l 1
 522 105 l 1
 522 328 l 1
149 105 m 1
 522 105 l 1
 522 30 l 1
 149 30 l 1
 149 105 l 1
75 254 m 1
 149 254 l 1
 149 105 l 1
 75 105 l 1
 75 254 l 1
EndSplineSet
Validated: 5
EndChar

StartChar: T
Encoding: 84 84 52
Width: 670
VWidth: 968
Flags: HW
LayerCount: 2
Back
Fore
SplineSet
0 775 m 1
 670 775 l 5
 670 700 l 1
 373 700 l 1
 373 30 l 1
 299 30 l 1
 299 700 l 1
 0 700 l 1
 0 775 l 1
EndSplineSet
Validated: 1
EndChar

StartChar: U
Encoding: 85 85 53
Width: 745
VWidth: 968
Flags: HW
LayerCount: 2
Back
Fore
SplineSet
75 775 m 5
 149 775 l 1
 149 179 l 1
 75 179 l 1
 75 775 l 5
596 775 m 1
 670 775 l 1
 670 179 l 1
 596 179 l 1
 596 775 l 1
522 179 m 1
 596 179 l 1
 596 105 l 1
 522 105 l 1
 522 179 l 1
224 105 m 1
 522 105 l 1
 522 30 l 1
 224 30 l 1
 224 105 l 1
149 179 m 1
 224 179 l 1
 224 105 l 1
 149 105 l 1
 149 179 l 1
EndSplineSet
Validated: 5
EndChar

StartChar: V
Encoding: 86 86 54
Width: 670
VWidth: 999
Flags: HW
LayerCount: 2
Fore
SplineSet
595 765 m 1
 670 765 l 1
 670 616 l 1
 595 616 l 1
 595 765 l 1
522 616 m 1
 595 616 l 1
 595 467 l 1
 522 467 l 1
 522 616 l 1
448 467 m 1
 522 467 l 1
 522 318 l 1
 448 318 l 1
 448 467 l 1
373 318 m 1
 448 318 l 1
 448 170 l 1
 373 170 l 1
 373 318 l 1
299 170 m 1
 373 170 l 1
 373 20 l 1
 299 20 l 1
 299 170 l 1
224 318 m 1
 299 318 l 1
 299 170 l 1
 224 170 l 1
 224 318 l 1
149 467 m 1
 224 467 l 1
 224 318 l 1
 149 318 l 1
 149 467 l 1
75 616 m 1
 149 616 l 1
 149 467 l 1
 75 467 l 1
 75 616 l 1
0 775 m 1
 75 775 l 1
 75 616 l 1
 0 616 l 1
 0 775 l 1
EndSplineSet
Validated: 5
EndChar

StartChar: W
Encoding: 87 87 55
Width: 969
VWidth: 968
Flags: HW
LayerCount: 2
Back
Fore
SplineSet
894 775 m 1
 969 775 l 1
 969 551 l 1
 894 551 l 1
 894 775 l 1
820 551 m 1
 894 551 l 1
 894 403 l 1
 820 403 l 1
 820 551 l 1
745 403 m 1
 820 403 l 1
 820 179 l 1
 745 179 l 1
 745 403 l 1
670 179 m 1
 745 179 l 1
 745 30 l 1
 670 30 l 1
 670 179 l 1
596 403 m 1
 670 403 l 1
 670 179 l 1
 596 179 l 1
 596 403 l 1
521 551 m 1
 596 551 l 1
 596 403 l 1
 521 403 l 1
 521 551 l 1
448 775 m 1
 521 775 l 1
 521 551 l 1
 448 551 l 1
 448 775 l 1
373 551 m 1
 448 551 l 1
 448 403 l 1
 373 403 l 1
 373 551 l 1
299 403 m 1
 373 403 l 1
 373 179 l 1
 299 179 l 1
 299 403 l 1
224 179 m 1
 299 179 l 1
 299 30 l 1
 224 30 l 1
 224 179 l 1
149 403 m 1
 224 403 l 1
 224 179 l 1
 149 179 l 1
 149 403 l 1
75 551 m 1
 149 551 l 1
 149 403 l 1
 75 403 l 1
 75 551 l 1
0 775 m 1
 75 775 l 1
 75 551 l 1
 0 551 l 1
 0 775 l 1
EndSplineSet
Validated: 5
EndChar

StartChar: X
Encoding: 88 88 56
Width: 596
VWidth: 968
Flags: HW
LayerCount: 2
Back
Fore
SplineSet
521 179 m 1
 596 179 l 1
 596 30 l 1
 521 30 l 1
 521 179 l 1
448 253 m 1
 521 253 l 1
 521 179 l 1
 448 179 l 1
 448 253 l 1
373 328 m 1
 448 328 l 1
 448 253 l 1
 373 253 l 1
 373 328 l 1
373 551 m 1
 448 551 l 1
 448 477 l 1
 373 477 l 1
 373 551 l 1
448 626 m 1
 521 626 l 1
 521 551 l 1
 448 551 l 1
 448 626 l 1
521 775 m 1
 596 775 l 1
 596 626 l 1
 521 626 l 1
 521 775 l 1
0 179 m 1
 75 179 l 1
 75 30 l 1
 0 30 l 1
 0 179 l 1
75 254 m 1
 149 254 l 1
 149 179 l 1
 75 179 l 1
 75 254 l 1
149 328 m 1
 224 328 l 1
 224 254 l 1
 149 254 l 1
 149 328 l 1
224 477 m 1
 373 477 l 1
 373 328 l 1
 224 328 l 1
 224 477 l 1
149 551 m 1
 224 551 l 1
 224 477 l 1
 149 477 l 1
 149 551 l 1
75 626 m 1
 149 626 l 1
 149 551 l 1
 75 551 l 1
 75 626 l 1
0 775 m 1
 75 775 l 1
 75 626 l 1
 0 626 l 1
 0 775 l 1
EndSplineSet
Validated: 5
EndChar

StartChar: Y
Encoding: 89 89 57
Width: 670
VWidth: 968
Flags: HW
LayerCount: 2
Back
Fore
SplineSet
299 403 m 1
 373 403 l 1
 373 30 l 1
 299 30 l 1
 299 403 l 1
596 775 m 1
 670 775 l 1
 670 626 l 1
 596 626 l 1
 596 775 l 1
522 626 m 1
 596 626 l 1
 596 551 l 1
 522 551 l 1
 522 626 l 1
448 551 m 1
 522 551 l 1
 522 477 l 1
 448 477 l 1
 448 551 l 1
373 477 m 1
 448 477 l 1
 448 403 l 1
 373 403 l 1
 373 477 l 1
224 477 m 1
 299 477 l 1
 299 403 l 1
 224 403 l 1
 224 477 l 1
149 551 m 1
 224 551 l 1
 224 477 l 1
 149 477 l 1
 149 551 l 1
75 626 m 1
 149 626 l 1
 149 551 l 1
 75 551 l 1
 75 626 l 1
0 775 m 1
 75 775 l 1
 75 626 l 1
 0 626 l 1
 0 775 l 1
EndSplineSet
Validated: 5
EndChar

StartChar: Z
Encoding: 90 90 58
Width: 596
VWidth: 968
Flags: HW
LayerCount: 2
Back
Fore
SplineSet
75 179 m 1
 149 179 l 1
 149 105 l 1
 522 105 l 1
 522 30 l 1
 75 30 l 1
 75 179 l 1
149 328 m 1
 224 328 l 1
 224 179 l 1
 149 179 l 1
 149 328 l 1
224 403 m 1
 299 403 l 1
 299 328 l 1
 224 328 l 1
 224 403 l 1
299 477 m 1
 373 477 l 1
 373 403 l 1
 299 403 l 1
 299 477 l 1
373 626 m 1
 448 626 l 1
 448 477 l 1
 373 477 l 1
 373 626 l 1
75 775 m 1
 522 773 l 1
 522 626 l 1
 448 626 l 1
 448 700 l 1
 75 700 l 1
 75 775 l 1
EndSplineSet
Validated: 5
EndChar

StartChar: bracketleft
Encoding: 91 91 59
Width: 298
VWidth: 968
Flags: HW
LayerCount: 2
Back
Fore
SplineSet
75 775 m 1
 298 775 l 1
 298 700 l 1
 149 700 l 1
 149 -119 l 1
 298 -119 l 1
 298 -194 l 5
 75 -194 l 1
 75 775 l 1
EndSplineSet
Validated: 1
EndChar

StartChar: backslash
Encoding: 92 92 60
Width: 447
VWidth: 968
Flags: HW
LayerCount: 2
Back
Fore
SplineSet
299 105 m 1
 373 105 l 1
 373 -119 l 1
 299 -119 l 1
 299 105 l 1
224 328 m 1
 299 328 l 1
 299 105 l 1
 224 105 l 1
 224 328 l 1
149 551 m 1
 224 551 l 1
 224 328 l 1
 149 328 l 1
 149 551 l 1
75 775 m 1
 149 775 l 1
 149 551 l 1
 75 551 l 1
 75 775 l 1
EndSplineSet
Validated: 5
EndChar

StartChar: bracketright
Encoding: 93 93 61
Width: 298
VWidth: 968
Flags: HW
LayerCount: 2
Back
Fore
SplineSet
0 775 m 1
 224 775 l 1
 224 -194 l 1
 0 -194 l 1
 0 -119 l 1
 149 -119 l 1
 149 700 l 1
 0 700 l 1
 0 775 l 1
EndSplineSet
Validated: 1
EndChar

StartChar: asciicircum
Encoding: 94 94 62
Width: 522
VWidth: 968
Flags: HW
LayerCount: 2
Back
Fore
SplineSet
373 701 m 1
 447 701 l 1
 447 626 l 5
 373 626 l 1
 373 701 l 1
298 775 m 1
 373 775 l 1
 373 701 l 1
 298 701 l 1
 298 775 l 1
224 850 m 1
 298 850 l 1
 298 775 l 1
 224 775 l 1
 224 850 l 1
149 775 m 1
 224 775 l 1
 224 701 l 1
 149 701 l 1
 149 775 l 1
75 701 m 1
 149 701 l 1
 149 626 l 1
 75 626 l 1
 75 701 l 1
EndSplineSet
Validated: 5
EndChar

StartChar: underscore
Encoding: 95 95 63
Width: 522
VWidth: 968
Flags: HW
LayerCount: 2
Back
Fore
SplineSet
0 -45 m 1
 522 -45 l 1
 522 -119 l 1
 0 -119 l 1
 0 -45 l 1
EndSplineSet
Validated: 1
EndChar

StartChar: grave
Encoding: 96 96 64
Width: 298
VWidth: 968
Flags: HW
LayerCount: 2
Back
Fore
SplineSet
75 775 m 1
 149 775 l 1
 149 700 l 1
 75 700 l 1
 75 775 l 1
149 700 m 1
 224 700 l 1
 224 626 l 1
 149 626 l 1
 149 700 l 1
EndSplineSet
Validated: 5
EndChar

StartChar: a
Encoding: 97 97 65
Width: 596
VWidth: 968
Flags: HW
LayerCount: 2
Back
Fore
SplineSet
448 477 m 1
 522 477 l 25
 522 105 l 1
 448 105 l 1
 448 328 l 25
 149 328 l 1
 149 403 l 1
 448 403 l 25
 448 477 l 1
75 328 m 1
 149 328 l 1
 149 105 l 1
 75 105 l 1
 75 328 l 1
149 105 m 1
 448 105 l 1
 448 30 l 1
 149 30 l 1
 149 105 l 1
149 551 m 1
 448 551 l 1
 448 477 l 1
 149 477 l 1
 149 551 l 1
75 477 m 1
 149 477 l 1
 149 403 l 1
 75 403 l 1
 75 477 l 1
522 105 m 1
 596 105 l 1
 596 30 l 1
 522 30 l 1
 522 105 l 1
EndSplineSet
Validated: 5
EndChar

StartChar: b
Encoding: 98 98 66
Width: 596
VWidth: 968
Flags: HW
LayerCount: 2
Back
Fore
SplineSet
75 775 m 1
 149 775 l 1
 149 477 l 1
 224 477 l 1
 224 403 l 1
 149 403 l 1
 149 179 l 1
 224 179 l 1
 224 105 l 1
 149 105 l 1
 149 30 l 1
 75 30 l 1
 75 775 l 1
448 477 m 1
 521 477 l 1
 521 105 l 1
 448 105 l 1
 448 477 l 1
224 105 m 1
 448 105 l 1
 448 30 l 1
 224 30 l 1
 224 105 l 1
224 551 m 1
 448 551 l 1
 448 477 l 1
 224 477 l 1
 224 551 l 1
EndSplineSet
Validated: 5
EndChar

StartChar: c
Encoding: 99 99 67
Width: 522
VWidth: 968
Flags: HW
LayerCount: 2
Back
Fore
SplineSet
75 477 m 1
 149 477 l 1
 149 105 l 1
 75 105 l 1
 75 477 l 1
149 105 m 1
 448 105 l 1
 448 30 l 1
 149 30 l 1
 149 105 l 1
149 551 m 1
 448 551 l 1
 448 477 l 1
 149 477 l 1
 149 551 l 1
448 179 m 1
 522 179 l 1
 522 105 l 1
 448 105 l 1
 448 179 l 1
448 477 m 1
 522 477 l 1
 522 403 l 1
 448 403 l 1
 448 477 l 1
EndSplineSet
Validated: 5
EndChar

StartChar: d
Encoding: 100 100 68
Width: 596
VWidth: 968
Flags: HW
LayerCount: 2
Back
Fore
SplineSet
448 775 m 1
 522 775 l 1
 522 30 l 1
 448 30 l 1
 448 105 l 1
 373 105 l 1
 373 178 l 1
 448 178 l 1
 448 403 l 1
 373 403 l 1
 373 477 l 1
 448 477 l 1
 448 775 l 1
75 477 m 1
 149 477 l 1
 149 105 l 1
 75 105 l 1
 75 477 l 1
149 105 m 1
 373 105 l 1
 373 30 l 1
 149 30 l 1
 149 105 l 1
149 551 m 1
 373 551 l 1
 373 477 l 1
 149 477 l 1
 149 551 l 1
EndSplineSet
Validated: 5
EndChar

StartChar: e
Encoding: 101 101 69
Width: 596
VWidth: 968
Flags: HW
LayerCount: 2
Back
Fore
SplineSet
75 477 m 1
 149 477 l 1
 149 328 l 1
 448 328 l 1
 448 477 l 1
 521 477 l 1
 521 254 l 1
 149 254 l 1
 149 105 l 1
 75 105 l 1
 75 477 l 1
149 551 m 1
 448 551 l 1
 448 477 l 1
 149 477 l 1
 149 551 l 1
149 105 m 1
 448 105 l 1
 448 30 l 1
 149 30 l 1
 149 105 l 1
448 179 m 1
 521 179 l 1
 521 105 l 1
 448 105 l 1
 448 179 l 1
EndSplineSet
Validated: 5
EndChar

StartChar: f
Encoding: 102 102 70
Width: 224
VWidth: 968
Flags: HW
LayerCount: 2
Back
Fore
SplineSet
75 700 m 1
 149 700 l 1
 149 551 l 1
 224 551 l 1
 224 477 l 1
 149 477 l 1
 149 30 l 1
 75 30 l 1
 75 477 l 1
 0 477 l 1
 0 551 l 1
 75 551 l 1
 75 700 l 1
149 775 m 1
 224 775 l 1
 224 700 l 1
 149 700 l 1
 149 775 l 1
EndSplineSet
Validated: 5
EndChar

StartChar: g
Encoding: 103 103 71
Width: 596
VWidth: 968
Flags: HW
LayerCount: 2
Back
Fore
SplineSet
448 551 m 1
 521 551 l 1
 521 -119 l 1
 448 -119 l 1
 448 105 l 25
 373 105 l 1
 373 179 l 1
 448 179 l 1
 448 403 l 1
 373 403 l 1
 373 477 l 1
 448 477 l 1
 448 551 l 1
75 477 m 1
 149 477 l 1
 149 105 l 1
 75 105 l 1
 75 477 l 1
149 -119 m 1
 448 -119 l 1
 448 -194 l 1
 149 -194 l 1
 149 -119 l 1
149 105 m 1
 373 105 l 1
 373 30 l 1
 149 30 l 1
 149 105 l 1
149 551 m 1
 373 551 l 1
 373 477 l 1
 149 477 l 1
 149 551 l 1
EndSplineSet
Validated: 5
EndChar

StartChar: h
Encoding: 104 104 72
Width: 532
VWidth: 968
Flags: HW
LayerCount: 2
Back
Fore
SplineSet
75 775 m 1
 149 775 l 1
 149 477 l 1
 224 477 l 1
 224 403 l 1
 149 403 l 1
 149 30 l 1
 75 30 l 1
 75 775 l 1
373 477 m 1
 448 477 l 1
 448 30 l 1
 373 30 l 1
 373 477 l 1
224 551 m 1
 373 551 l 1
 373 477 l 1
 224 477 l 1
 224 551 l 1
EndSplineSet
Validated: 5
EndChar

StartChar: i
Encoding: 105 105 73
Width: 224
VWidth: 968
Flags: HW
LayerCount: 2
Back
Fore
SplineSet
75 551 m 1
 149 551 l 1
 149 30 l 1
 75 30 l 1
 75 551 l 1
75 775 m 1
 149 775 l 1
 149 700 l 1
 75 700 l 1
 75 775 l 1
EndSplineSet
Validated: 1
EndChar

StartChar: j
Encoding: 106 106 74
Width: 224
VWidth: 968
Flags: HW
LayerCount: 2
Back
Fore
SplineSet
75 551 m 1
 149 551 l 1
 149 -119 l 1
 75 -119 l 1
 75 551 l 1
0 -119 m 1
 75 -119 l 1
 75 -194 l 1
 0 -194 l 1
 0 -119 l 1
75 775 m 1
 149 775 l 1
 149 700 l 1
 75 700 l 1
 75 775 l 1
EndSplineSet
Validated: 5
EndChar

StartChar: k
Encoding: 107 107 75
Width: 522
VWidth: 968
Flags: HW
LayerCount: 2
Back
Fore
SplineSet
75 775 m 1
 149 775 l 1
 149 328 l 1
 224 328 l 1
 224 403 l 1
 299 403 l 1
 299 254 l 1
 149 254 l 1
 149 30 l 1
 75 30 l 1
 75 775 l 1
448 105 m 1
 522 105 l 1
 522 30 l 1
 448 30 l 1
 448 105 l 1
373 179 m 1
 448 179 l 1
 448 105 l 1
 373 105 l 1
 373 179 l 1
299 254 m 1
 373 254 l 1
 373 179 l 1
 299 179 l 1
 299 254 l 1
373 551 m 1
 448 551 l 1
 448 477 l 1
 373 477 l 1
 373 551 l 1
299 477 m 1
 373 477 l 1
 373 403 l 1
 299 403 l 1
 299 477 l 1
EndSplineSet
Validated: 5
EndChar

StartChar: l
Encoding: 108 108 76
Width: 224
VWidth: 968
Flags: HW
LayerCount: 2
Back
Fore
SplineSet
75 775 m 1
 149 775 l 1
 147 33 l 1
 75 30 l 1
 75 775 l 1
EndSplineSet
Validated: 1
EndChar

StartChar: m
Encoding: 109 109 77
Width: 820
VWidth: 968
Flags: HW
LayerCount: 2
Back
Fore
SplineSet
75 551 m 1
 149 551 l 1
 149 477 l 1
 224 477 l 1
 224 403 l 1
 149 403 l 1
 149 30 l 1
 75 30 l 1
 75 551 l 1
373 477 m 1
 522 477 l 1
 522 403 l 1
 448 403 l 1
 448 30 l 1
 373 30 l 1
 373 477 l 1
670 477 m 1
 745 477 l 1
 745 30 l 1
 670 30 l 1
 670 477 l 1
522 551 m 1
 670 551 l 1
 670 477 l 1
 522 477 l 1
 522 551 l 1
224 551 m 1
 373 551 l 1
 373 477 l 1
 224 477 l 1
 224 551 l 1
EndSplineSet
Validated: 5
EndChar

StartChar: n
Encoding: 110 110 78
Width: 522
VWidth: 968
Flags: HW
LayerCount: 2
Back
Fore
SplineSet
75 551 m 1
 149 551 l 1
 149 477 l 1
 224 477 l 1
 224 403 l 1
 149 403 l 1
 149 30 l 1
 75 30 l 1
 75 551 l 1
373 477 m 1
 448 477 l 1
 448 30 l 1
 373 30 l 1
 373 477 l 1
224 551 m 1
 373 551 l 1
 373 477 l 1
 224 477 l 1
 224 551 l 1
EndSplineSet
Validated: 5
EndChar

StartChar: o
Encoding: 111 111 79
Width: 596
VWidth: 968
Flags: HW
LayerCount: 2
Back
Fore
SplineSet
75 477 m 25
 149 477 l 25
 149 105 l 25
 75 105 l 25
 75 477 l 25
149 105 m 1
 448 105 l 1
 448 30 l 1
 149 30 l 1
 149 105 l 1
448 477 m 1
 521 477 l 1
 521 105 l 1
 448 105 l 1
 448 477 l 1
149 551 m 1
 448 551 l 1
 448 477 l 1
 149 477 l 1
 149 551 l 1
EndSplineSet
Validated: 5
EndChar

StartChar: p
Encoding: 112 112 80
Width: 596
VWidth: 968
Flags: HW
LayerCount: 2
Back
Fore
SplineSet
75 551 m 1
 149 551 l 1
 149 477 l 1
 224 477 l 1
 224 403 l 1
 149 403 l 1
 149 179 l 1
 224 179 l 1
 224 105 l 1
 149 105 l 1
 149 -194 l 1
 75 -194 l 1
 75 551 l 1
448 477 m 1
 522 477 l 1
 522 105 l 1
 448 105 l 1
 448 477 l 1
224 105 m 1
 448 105 l 1
 448 30 l 1
 224 30 l 1
 224 105 l 1
224 551 m 1
 448 551 l 1
 448 477 l 1
 224 477 l 1
 224 551 l 1
EndSplineSet
Validated: 5
EndChar

StartChar: q
Encoding: 113 113 81
Width: 596
VWidth: 968
Flags: HW
LayerCount: 2
Back
Fore
SplineSet
373 477 m 1
 448 477 l 1
 448 551 l 1
 522 551 l 1
 522 -194 l 1
 448 -194 l 1
 448 105 l 1
 373 105 l 1
 373 179 l 1
 448 179 l 1
 448 403 l 1
 373 403 l 1
 373 477 l 1
75 477 m 1
 149 477 l 1
 149 105 l 1
 75 105 l 1
 75 477 l 1
149 105 m 1
 373 105 l 1
 373 30 l 1
 149 30 l 1
 149 105 l 1
149 551 m 1
 373 551 l 1
 373 477 l 1
 149 477 l 1
 149 551 l 1
EndSplineSet
Validated: 5
EndChar

StartChar: r
Encoding: 114 114 82
Width: 298
VWidth: 968
Flags: HW
LayerCount: 2
Back
Fore
SplineSet
75 551 m 1
 149 551 l 1
 149 477 l 1
 224 477 l 1
 224 403 l 1
 149 403 l 1
 149 30 l 1
 75 30 l 1
 75 551 l 1
224 551 m 1
 298 551 l 1
 298 477 l 1
 224 477 l 1
 224 551 l 1
EndSplineSet
Validated: 5
EndChar

StartChar: s
Encoding: 115 115 83
Width: 522
VWidth: 968
Flags: HW
LayerCount: 2
Back
Fore
SplineSet
149 105 m 1
 373 105 l 1
 373 30 l 1
 149 30 l 1
 149 105 l 1
149 551 m 1
 373 551 l 1
 373 477 l 1
 149 477 l 1
 149 551 l 1
149 328 m 1
 373 328 l 25
 373 254 l 1
 149 254 l 25
 149 328 l 1
75 477 m 1
 149 477 l 1
 149 328 l 1
 75 328 l 1
 75 477 l 1
373 254 m 1
 448 254 l 1
 448 105 l 1
 373 105 l 1
 373 254 l 1
75 179 m 1
 149 179 l 1
 149 105 l 1
 75 105 l 1
 75 179 l 1
373 477 m 1
 448 477 l 1
 448 403 l 1
 373 403 l 1
 373 477 l 1
EndSplineSet
Validated: 5
EndChar

StartChar: t
Encoding: 116 116 84
Width: 224
VWidth: 968
Flags: HW
LayerCount: 2
Back
Fore
SplineSet
75 700 m 1
 149 700 l 1
 149 551 l 1
 224 551 l 1
 224 477 l 1
 149 477 l 1
 149 105 l 1
 75 105 l 1
 75 477 l 1
 0 477 l 1
 0 551 l 1
 75 551 l 1
 75 700 l 1
149 105 m 1
 224 105 l 1
 224 30 l 1
 149 30 l 1
 149 105 l 1
EndSplineSet
Validated: 5
EndChar

StartChar: u
Encoding: 117 117 85
Width: 522
VWidth: 968
Flags: HW
LayerCount: 2
Back
Fore
SplineSet
373 551 m 1
 448 551 l 1
 448 30 l 1
 373 30 l 1
 373 105 l 1
 299 105 l 1
 299 179 l 1
 373 179 l 1
 373 551 l 1
75 551 m 1
 149 551 l 1
 149 105 l 1
 75 105 l 1
 75 551 l 1
149 105 m 1
 299 105 l 1
 299 30 l 1
 149 30 l 1
 149 105 l 1
EndSplineSet
Validated: 5
EndChar

StartChar: v
Encoding: 118 118 86
Width: 522
VWidth: 968
Flags: HW
LayerCount: 2
Back
Fore
SplineSet
0 551 m 1
 75 551 l 1
 75 403 l 1
 0 403 l 1
 0 551 l 1
75 403 m 1
 149 403 l 1
 149 253 l 1
 75 253 l 1
 75 403 l 1
149 253 m 1
 224 253 l 1
 224 105 l 1
 149 105 l 1
 149 253 l 1
448 551 m 1
 522 551 l 1
 522 403 l 1
 448 403 l 1
 448 551 l 1
373 403 m 1
 448 403 l 1
 448 253 l 1
 373 253 l 1
 373 403 l 1
299 253 m 1
 373 253 l 1
 373 105 l 1
 299 105 l 1
 299 253 l 1
224 105 m 1
 299 105 l 1
 299 30 l 1
 224 30 l 1
 224 105 l 1
EndSplineSet
Validated: 5
EndChar

StartChar: w
Encoding: 119 119 87
Width: 670
VWidth: 968
Flags: HW
LayerCount: 2
Back
Fore
SplineSet
522 403 m 25
 596 403 l 1
 596 179 l 25
 522 179 l 1
 522 403 l 25
373 403 m 1
 448 403 l 25
 448 179 l 1
 373 179 l 25
 373 403 l 1
224 403 m 25
 299 403 l 1
 299 179 l 25
 224 179 l 1
 224 403 l 25
75 403 m 1
 149 403 l 25
 149 179 l 1
 75 179 l 25
 75 403 l 1
596 551 m 1
 670 551 l 1
 670 403 l 1
 596 403 l 1
 596 551 l 1
448 179 m 1
 522 179 l 1
 522 30 l 1
 448 30 l 1
 448 179 l 1
299 551 m 1
 373 551 l 1
 373 403 l 1
 299 403 l 1
 299 551 l 1
149 179 m 1
 224 179 l 1
 224 30 l 1
 149 30 l 1
 149 179 l 1
0 551 m 1
 75 551 l 1
 75 403 l 1
 0 403 l 1
 0 551 l 1
EndSplineSet
Validated: 5
EndChar

StartChar: x
Encoding: 120 120 88
Width: 447
VWidth: 968
Flags: HW
LayerCount: 2
Back
Fore
SplineSet
0 105 m 1
 75 105 l 1
 75 30 l 1
 0 30 l 1
 0 105 l 1
75 179 m 1
 149 179 l 1
 149 105 l 1
 75 105 l 1
 75 179 l 1
0 551 m 1
 75 551 l 1
 75 477 l 1
 0 477 l 1
 0 551 l 1
75 477 m 1
 149 477 l 1
 149 403 l 1
 75 403 l 1
 75 477 l 1
373 105 m 1
 447 105 l 1
 447 30 l 1
 373 30 l 1
 373 105 l 1
299 179 m 1
 373 179 l 1
 373 105 l 1
 299 105 l 1
 299 179 l 1
373 551 m 1
 447 551 l 1
 447 477 l 1
 373 477 l 1
 373 551 l 1
299 477 m 1
 373 477 l 1
 373 403 l 1
 299 403 l 1
 299 477 l 1
149 403 m 1
 299 403 l 1
 299 179 l 1
 149 179 l 1
 149 403 l 1
EndSplineSet
Validated: 5
EndChar

StartChar: y
Encoding: 121 121 89
Width: 522
VWidth: 968
Flags: HW
LayerCount: 2
Back
Fore
SplineSet
0 551 m 1
 75 551 l 1
 75 403 l 1
 0 403 l 1
 0 551 l 1
75 403 m 1
 149 403 l 1
 149 253 l 1
 75 253 l 1
 75 403 l 1
149 253 m 1
 224 253 l 1
 224 105 l 1
 149 105 l 1
 149 253 l 1
448 551 m 1
 522 551 l 1
 522 403 l 1
 448 403 l 1
 448 551 l 1
373 403 m 1
 448 403 l 1
 448 254 l 1
 373 254 l 1
 373 403 l 1
299 254 m 1
 373 254 l 1
 373 105 l 1
 299 105 l 1
 299 254 l 1
224 105 m 1
 299 105 l 1
 299 -45 l 1
 224 -45 l 1
 224 105 l 1
0 -119 m 25
 149 -119 l 1
 149 -194 l 25
 0 -194 l 1
 0 -119 l 25
149 -45 m 1
 224 -45 l 1
 224 -119 l 1
 149 -119 l 1
 149 -45 l 1
EndSplineSet
Validated: 5
EndChar

StartChar: z
Encoding: 122 122 90
Width: 447
VWidth: 968
Flags: HW
LayerCount: 2
Back
Fore
SplineSet
75 179 m 1
 149 179 l 1
 149 105 l 1
 373 105 l 1
 373 30 l 1
 75 30 l 1
 75 179 l 1
75 551 m 1
 373 551 l 1
 373 403 l 1
 299 403 l 1
 299 477 l 1
 75 477 l 1
 75 551 l 1
149 328 m 1
 224 328 l 1
 224 179 l 1
 149 179 l 1
 149 328 l 1
224 403 m 1
 299 403 l 1
 299 328 l 1
 224 328 l 1
 224 403 l 1
EndSplineSet
Validated: 5
EndChar

StartChar: braceleft
Encoding: 123 123 91
Width: 373
VWidth: 968
Flags: HW
LayerCount: 2
Back
Fore
SplineSet
224 -119 m 5
 373 -119 l 5
 373 -194 l 5
 224 -194 l 5
 224 -119 l 5
149 253 m 5
 224 253 l 5
 224 -119 l 5
 149 -119 l 5
 149 253 l 5
0 328 m 5
 149 328 l 5
 149 253 l 5
 0 253 l 5
 0 328 l 5
149 701 m 5
 224 701 l 5
 224 328 l 5
 149 328 l 5
 149 701 l 5
224 775 m 5
 373 775 l 5
 373 701 l 5
 224 701 l 5
 224 775 l 5
EndSplineSet
Validated: 5
EndChar

StartChar: bar
Encoding: 124 124 92
Width: 224
VWidth: 968
Flags: HW
LayerCount: 2
Back
Fore
SplineSet
75 775 m 1
 149 775 l 1
 149 -194 l 1
 75 -194 l 1
 75 775 l 1
EndSplineSet
Validated: 1
EndChar

StartChar: braceright
Encoding: 125 125 93
Width: 373
VWidth: 968
Flags: HW
LayerCount: 2
Back
Fore
SplineSet
149 -119 m 5
 0 -119 l 5
 0 -194 l 5
 149 -194 l 5
 149 -119 l 5
224 253 m 5
 149 253 l 5
 149 -119 l 5
 224 -119 l 5
 224 253 l 5
373 328 m 5
 224 328 l 5
 224 253 l 5
 373 253 l 5
 373 328 l 5
224 701 m 5
 149 701 l 5
 149 328 l 5
 224 328 l 5
 224 701 l 5
149 775 m 5
 0 775 l 5
 0 701 l 5
 149 701 l 5
 149 775 l 5
EndSplineSet
Validated: 5
EndChar

StartChar: asciitilde
Encoding: 126 126 94
Width: 670
VWidth: 968
Flags: HW
LayerCount: 2
Back
Fore
SplineSet
522 775 m 5
 596 775 l 1
 596 626 l 1
 522 626 l 1
 522 775 l 5
373 626 m 1
 522 626 l 1
 522 552 l 1
 373 552 l 1
 373 626 l 1
298 701 m 1
 373 701 l 1
 373 626 l 1
 298 626 l 1
 298 701 l 1
149 775 m 1
 298 775 l 1
 298 701 l 1
 149 701 l 1
 149 775 l 1
75 701 m 1
 149 701 l 1
 149 552 l 1
 75 552 l 1
 75 701 l 1
EndSplineSet
Validated: 5
EndChar

StartChar: Euro
Encoding: 128 8364 96
Width: 522
VWidth: 968
Flags: HW
LayerCount: 2
Back
Fore
SplineSet
74 701 m 1
 149 701 l 1
 149 552 l 1
 298 552 l 1
 298 477 l 1
 149 477 l 1
 149 402 l 1
 224 402 l 1
 224 328 l 1
 149 328 l 1
 149 104 l 1
 74 104 l 1
 74 328 l 1
 0 328 l 1
 0 402 l 1
 74 402 l 1
 74 477 l 1
 0 477 l 1
 0 552 l 1
 74 552 l 1
 74 701 l 1
149 104 m 1
 373 104 l 1
 373 30 l 1
 149 30 l 1
 149 104 l 1
373 253 m 1
 447 253 l 1
 447 104 l 1
 373 104 l 1
 373 253 l 1
149 775 m 1
 373 775 l 1
 373 701 l 1
 149 701 l 1
 149 775 l 1
373 701 m 1
 447 701 l 1
 447 552 l 1
 373 552 l 1
 373 701 l 1
EndSplineSet
EndChar

StartChar: quoteleft
Encoding: 145 8216 113
Width: 224
VWidth: 968
Flags: HW
LayerCount: 2
Back
Fore
SplineSet
149 775 m 1
 224 775 l 1
 224 700 l 1
 149 700 l 1
 149 775 l 1
75 700 m 1
 149 700 l 1
 149 626 l 1
 75 626 l 1
 75 700 l 1
EndSplineSet
Validated: 5
EndChar

StartChar: quoteright
Encoding: 146 8217 114
Width: 224
VWidth: 968
Flags: HW
LayerCount: 2
Back
Fore
SplineSet
0 700 m 1
 75 700 l 1
 75 626 l 1
 0 626 l 1
 0 700 l 1
75 775 m 1
 149 775 l 1
 149 700 l 1
 75 700 l 1
 75 775 l 1
EndSplineSet
Validated: 5
EndChar

